<!--?xml version="1.0" standalone="no"?-->

<svg version="1.0" xmlns="http://www.w3.org/2000/svg" width="240.000000pt" height="300.000000pt" viewBox="0 0 240.000000 300.000000" preserveAspectRatio="xMidYMid meet">
<g transform="translate(0.000000,300.000000) scale(0.100000,-0.100000)" fill="#292929" stroke="none">
<path class="node" id="node1" d="M931 2674 c-78 -65 -55 -225 43 -296 53 -38 104 -38 148 1 32 29 33
31 33 113 0 76 -3 89 -28 127 -54 81 -137 105 -196 55z"></path>
<path class="node" id="node2" d="M1335 2680 c-29 -12 -92 -80 -104 -113 -6 -16 -11 -57 -11 -92 0 -57
3 -68 29 -97 99 -111 285 67 241 231 -18 68 -87 100 -155 71z"></path>
<path class="node" id="node3" d="M713 2406 c-24 -21 -28 -31 -28 -79 0 -70 39 -131 105 -164 61 -31
102 -30 141 5 28 25 32 35 32 76 -1 57 -35 113 -95 156 -53 39 -114 41 -155 6z"></path>
<path class="node" id="node4" d="M1519 2400 c-143 -76 -160 -280 -22 -280 108 0 214 130 183 225 -23
68 -91 92 -161 55z"></path>
<path class="node" id="node5" d="M391 2217 c-7 -56 -18 -110 -24 -122 -11 -20 -19 -111 -19 -230 0
-38 8 -80 21 -115 26 -68 51 -171 51 -213 0 -37 28 -88 62 -111 13 -9 57 -38
98 -65 41 -26 107 -75 147 -110 59 -50 75 -71 89 -114 20 -57 25 -178 11 -284
l-8 -63 165 0 c156 0 166 1 176 20 17 32 7 366 -14 475 -21 106 -72 212 -121
249 -49 38 -155 94 -218 115 -65 23 -114 56 -123 85 -4 11 -37 52 -75 92 -59
62 -69 78 -69 109 0 20 -7 52 -15 72 -16 37 -22 149 -10 194 7 28 -12 76 -37
96 -7 6 -27 13 -44 16 l-30 6 -13 -102z"></path>
<path class="node" id="node6" d="M1090 2297 c-59 -31 -90 -89 -90 -168 0 -55 -1 -58 -29 -64 -40 -9
-97 -74 -111 -127 -21 -77 11 -176 72 -219 43 -31 105 -30 190 4 80 32 97 33
131 7 38 -30 108 -60 142 -60 88 0 164 125 136 225 -15 57 -62 109 -126 140
-53 26 -54 28 -65 83 -23 109 -60 167 -123 191 -43 17 -80 13 -127 -12z"></path>
<path class="node" id="node7" d="M1944 2309 c-50 -14 -65 -58 -58 -167 6 -72 3 -99 -10 -131 -9 -23
-16 -58 -16 -77 0 -31 -10 -46 -70 -108 -38 -40 -70 -78 -70 -84 0 -20 -75
-73 -130 -92 -65 -22 -176 -82 -224 -122 -20 -16 -49 -57 -65 -91 -49 -100
-66 -211 -66 -442 l0 -200 173 -3 c94 -1 172 1 172 5 0 5 -7 49 -15 100 -13
81 -13 101 0 169 8 42 23 90 33 108 21 37 142 140 219 187 142 88 152 99 163
195 5 38 15 92 23 119 8 28 20 68 27 90 29 99 32 114 25 136 -5 13 -11 62 -16
109 -4 47 -14 117 -23 155 -8 39 -15 89 -16 113 0 45 -3 47 -56 31z"></path>



















</g>
<g transform="translate(0.000000,300.000000) scale(0.100000,-0.100000)" fill="#FFFFFF" stroke="none">

<path class="node" id="node28" d="M352 670 c0 -14 2 -19 5 -12 2 6 2 18 0 25 -3 6 -5 1 -5 -13z"></path>
<path class="node" id="node29" d="M352 575 c0 -16 2 -22 5 -12 2 9 2 23 0 30 -3 6 -5 -1 -5 -18z"></path>
<path class="node" id="node30" d="M1160 576 c0 -9 5 -16 10 -16 6 0 10 4 10 9 0 6 -4 13 -10 16 -5 3
-10 -1 -10 -9z"></path>
<path class="node" id="node31" d="M1310 576 c0 -9 5 -16 10 -16 6 0 10 4 10 9 0 6 -4 13 -10 16 -5 3
-10 -1 -10 -9z"></path>
<path class="node" id="node32" d="M770 355 c0 -19 5 -35 10 -35 6 0 10 16 10 35 0 19 -4 35 -10 35 -5
0 -10 -16 -10 -35z"></path>
<path class="node" id="node33" d="M1000 384 c0 -8 5 -12 10 -9 6 3 10 10 10 16 0 5 -4 9 -10 9 -5 0
-10 -7 -10 -16z"></path>

<path class="node" id="node35" d="M1610 344 c0 -8 5 -12 10 -9 6 4 8 11 5 16 -9 14 -15 11 -15 -7z"></path>
</g>
</svg>